<?xml version="1.0" encoding="UTF-8" standalone="no"?>
<!DOCTYPE svg PUBLIC "-//W3C//DTD SVG 1.1//EN" "http://www.w3.org/Graphics/SVG/1.1/DTD/svg11.dtd">
<svg width="100%" height="100%" viewBox="0 0 332 41" version="1.1" xmlns="http://www.w3.org/2000/svg" xmlns:xlink="http://www.w3.org/1999/xlink" xml:space="preserve" xmlns:serif="http://www.serif.com/" style="fill-rule:evenodd;clip-rule:evenodd;stroke-linejoin:round;stroke-miterlimit:2;">
    <g>
        <path d="M77.292,15.094L49.249,15.094L48.21,15.871L48.21,40.818L55.973,40.818L55.973,31.463L56.714,30.799L77.293,30.799C82.489,30.799 84.925,29.401 84.925,25.814L84.925,20.086C84.924,16.493 82.489,15.094 77.292,15.094M77.292,24.317C77.292,26.007 76.174,26.358 73.738,26.358L56.799,26.358L55.972,25.554L55.972,20.21L56.713,19.532L73.738,19.532C76.174,19.532 77.292,19.879 77.292,21.577L77.292,24.317Z" style="fill:white;fill-rule:nonzero;"/>
        <path d="M99.081,19.813L105.761,29.6L105.391,30.548L90.618,30.548L86.847,35.187L108.837,35.187L110.361,36.115L113.775,40.824L122.659,40.824L103.186,14.775" style="fill:white;fill-rule:nonzero;"/>
        <path d="M187.418,35.757L187.418,28.833L188.217,28.143L203.079,28.143L203.079,23.734L179.524,23.734L179.524,40.823L214.27,40.823L214.27,36.435L188.252,36.435" style="fill:white;fill-rule:nonzero;"/>
        <rect x="179.524" y="15.094" width="35.113" height="4.848" style="fill:white;"/>
        <path d="M140.361,19.685L168.649,19.685C168.213,16.088 165.981,15.09 160.319,15.09L140.06,15.09C133.671,15.09 131.633,16.337 131.633,21.172L131.633,34.737C131.633,39.577 133.671,40.824 140.06,40.824L160.319,40.824C166.064,40.824 168.264,39.745 168.414,36.014L140.361,36.014L139.529,35.231L139.529,20.209" style="fill:white;fill-rule:nonzero;"/>
        <path d="M29.333,25.118L8.754,25.118L8.148,24.451L8.148,20.049L8.751,19.583L36.493,19.583L36.872,18.656C35.927,16.225 33.48,15.091 28.936,15.091L9.665,15.091C3.28,15.091 1.239,16.338 1.239,21.173L1.239,24.017C1.239,28.858 3.28,30.103 9.665,30.103L30.198,30.103L30.843,30.669L30.843,35.271L30.317,35.989L6.83,35.989L6.83,35.967L0.678,35.967C0.678,35.967 -0.026,36.32 0.001,36.485C0.526,39.867 2.83,40.825 8.346,40.825L29.333,40.825C35.717,40.825 37.819,39.578 37.819,34.738L37.819,31.195C37.819,26.363 35.717,25.118 29.333,25.118" style="fill:white;fill-rule:nonzero;"/>
        <path d="M236.725,14.988L225.174,14.988L224.547,16.181L237.375,25.532C239.805,24.125 242.449,22.699 245.325,21.292" style="fill:white;fill-rule:nonzero;"/>
        <path d="M247.075,32.603L258.35,40.825L270.042,40.825L270.526,39.736L253.69,27.413C251.454,29.054 249.245,30.787 247.075,32.603" style="fill:white;fill-rule:nonzero;"/>
        <path d="M235.006,40.806L224.555,40.806L223.672,39.423C230.778,32.562 262.56,3.151 331.644,0C331.644,0 273.658,1.956 235.006,40.806" style="fill:white;fill-rule:nonzero;"/>
    </g>
</svg>
